<?xml version="1.0" standalone="no"?>
<!DOCTYPE svg PUBLIC "-//W3C//DTD SVG 20010904//EN"
 "http://www.w3.org/TR/2001/REC-SVG-20010904/DTD/svg10.dtd">
<svg version="1.0" xmlns="http://www.w3.org/2000/svg"
 width="600.000000pt" height="600.000000pt" viewBox="0 0 600.000000 600.000000"
 preserveAspectRatio="xMidYMid meet">
<metadata>
Created by potrace 1.11, written by Peter Selinger 2001-2013
</metadata>
<g transform="translate(0.000000,600.000000) scale(0.100000,-0.100000)"
fill="#000000" stroke="none">
<path d="M2350 5288 c-42 -69 -62 -141 -65 -228 -2 -82 -12 -128 -27 -129 -5
-1 -12 -1 -17 -1 -5 0 -18 -23 -30 -50 -23 -53 -31 -154 -13 -172 11 -11 -4
-89 -20 -99 -6 -4 -10 -40 -11 -81 l0 -74 -110 1 -111 0 -9 -35 c-16 -62 -2
-403 22 -513 l22 -98 -29 -42 c-16 -23 -41 -64 -57 -92 -15 -27 -64 -90 -108
-141 -81 -94 -206 -262 -207 -278 0 -5 51 -7 119 -3 l120 6 -15 -47 c-8 -26
-21 -67 -29 -92 -40 -128 -56 -342 -34 -467 l11 -63 -33 -46 c-19 -24 -58 -74
-86 -110 -29 -36 -53 -68 -53 -72 0 -3 10 -25 21 -49 l21 -44 -21 -51 c-12
-28 -19 -53 -17 -55 2 -2 24 6 49 18 l45 22 45 -37 c41 -34 46 -42 49 -84 2
-35 7 -46 18 -45 8 2 23 -11 32 -27 21 -38 32 -38 60 0 23 32 38 38 38 16 0
-30 73 -156 110 -190 38 -34 118 -81 126 -74 2 3 11 68 21 145 l17 141 50 -44
c57 -52 131 -98 144 -90 5 3 12 24 16 47 l7 42 22 -22 c27 -25 37 -27 37 -6 0
21 13 19 36 -7 15 -17 21 -40 23 -82 1 -33 7 -68 12 -78 13 -24 -6 -98 -43
-173 -17 -33 -62 -93 -102 -135 -125 -130 -230 -268 -242 -317 -7 -28 10 -75
43 -114 l24 -28 -51 -100 c-57 -113 -102 -235 -94 -256 13 -33 155 -111 246
-135 24 -7 52 -20 63 -30 28 -26 136 -80 159 -80 11 0 17 -2 15 -5 -3 -2 -81
-11 -174 -20 -198 -19 -352 -47 -374 -70 -15 -15 -14 -17 3 -30 41 -30 251
-61 581 -86 232 -17 1234 -23 1533 -10 429 20 701 49 789 86 114 48 -86 94
-542 125 -244 17 -875 32 -1095 26 l-205 -5 55 18 c36 13 69 17 97 14 94 -12
358 52 508 122 74 36 215 130 215 144 0 5 31 40 68 77 89 90 141 200 142 301
l0 31 -66 1 c-37 0 -69 3 -72 6 -3 3 -13 30 -22 59 l-17 53 49 -19 c26 -10 68
-18 93 -18 40 0 143 22 164 34 5 3 25 -1 45 -9 45 -19 223 -61 293 -69 l51 -6
16 69 c17 76 20 121 9 121 -5 0 -46 -7 -93 -15 -128 -23 -146 -19 -65 14 l70
28 5 89 c3 49 4 91 3 93 -6 10 -179 -105 -235 -157 l-28 -26 0 50 c0 50 -35
141 -67 176 -40 44 -138 25 -131 -25 2 -17 11 -23 35 -25 45 -4 67 -42 68
-116 0 -52 -3 -60 -25 -75 -14 -9 -35 -26 -48 -39 -50 -49 -157 -20 -279 75
-233 183 -271 203 -372 203 -95 -1 -223 -65 -321 -162 -50 -50 -60 -56 -70
-43 -10 13 -9 19 5 35 17 19 16 22 -24 99 -65 126 -54 172 69 273 l75 61 8
-42 c5 -22 12 -41 18 -41 5 0 54 22 109 49 66 32 100 44 100 36 0 -34 40 -25
88 18 l22 20 0 -66 c0 -37 4 -67 10 -67 43 0 219 88 250 125 9 11 21 7 67 -26
66 -46 83 -49 83 -14 0 34 10 32 78 -14 31 -21 82 -55 112 -74 30 -20 80 -55
110 -77 52 -38 136 -71 209 -84 l34 -6 -7 115 c-4 64 -9 122 -12 129 -3 9 5
16 23 20 53 13 160 85 217 146 49 53 116 162 116 188 0 5 -51 46 -112 92 -105
79 -298 261 -298 282 0 5 4 7 9 4 24 -15 117 140 107 180 -9 35 23 114 46 114
23 0 75 65 93 119 18 53 20 118 3 123 -9 3 -8 22 1 80 11 68 16 80 56 121 62
66 98 193 60 215 -14 7 -13 16 7 72 17 47 29 66 43 68 31 6 82 60 103 111 28
65 38 121 22 131 -18 11 17 99 45 112 57 26 144 264 105 288 -18 11 -4 46 36
90 65 72 104 189 104 312 0 70 12 69 -143 2 -75 -33 -119 -46 -167 -50 -260
-19 -698 -118 -930 -209 -75 -30 -102 -35 -235 -44 l-150 -10 -95 96 c-104
104 -213 188 -234 180 -16 -6 -66 -127 -66 -159 0 -21 -1 -21 -28 5 -48 46
-124 69 -244 75 -60 2 -108 1 -107 -4 0 -5 27 -28 61 -52 33 -24 58 -44 57
-45 -2 -1 -40 -1 -84 1 l-80 3 -73 112 c-113 174 -308 449 -345 489 -14 15
-35 57 -47 95 -34 104 -48 114 -80 61z m58 -40 c34 -93 34 -91 -3 -167 -34
-69 -47 -82 -60 -61 -10 16 -21 12 -31 -10 -14 -31 -17 93 -3 143 13 51 59
147 70 147 4 0 16 -24 27 -52z m107 -188 c3 -5 1 -10 -4 -10 -6 0 -11 5 -11
10 0 6 2 10 4 10 3 0 8 -4 11 -10z m-75 -41 c0 -5 -7 -9 -15 -9 -15 0 -20 12
-9 23 8 8 24 -1 24 -14z m-148 -78 c-9 -25 -8 -31 10 -43 l20 -14 -23 -92
c-21 -82 -26 -92 -46 -92 -15 0 -23 -6 -23 -17 -1 -10 -8 2 -17 27 -26 74 5
210 48 210 11 0 20 11 24 31 4 17 9 28 12 25 3 -3 1 -18 -5 -35z m178 -9 c0
-13 -12 -22 -22 -16 -10 6 -1 24 13 24 5 0 9 -4 9 -8z m-80 -57 c0 -8 -4 -15
-9 -15 -13 0 -22 16 -14 24 11 11 23 6 23 -9z m30 -85 c0 -5 -4 -10 -10 -10
-5 0 -10 5 -10 10 0 6 5 10 10 10 6 0 10 -4 10 -10z m2905 -76 c-13 -123 -71
-274 -106 -274 -5 0 -19 -21 -31 -46 -17 -39 -18 -50 -8 -70 27 -49 -42 -239
-91 -251 -11 -3 -26 -20 -33 -37 l-14 -31 2 34 c1 33 0 34 -52 46 -29 7 -55
15 -58 17 -2 3 9 38 25 79 16 41 35 93 42 117 l12 42 73 0 c72 0 72 0 83 31
19 54 15 66 -26 73 -21 3 -50 6 -65 6 -16 0 -28 3 -28 6 0 3 9 40 20 83 11 42
21 92 22 110 2 29 8 36 48 54 50 22 183 76 189 77 2 0 0 -29 -4 -66z m-2983
11 c0 -5 -5 -11 -11 -13 -6 -2 -11 4 -11 13 0 9 5 15 11 13 6 -2 11 -8 11 -13z
m-125 -97 c-3 -7 -5 -2 -5 12 0 14 2 19 5 13 2 -7 2 -19 0 -25z m175 17 c0 -5
-5 -11 -11 -13 -6 -2 -11 4 -11 13 0 9 5 15 11 13 6 -2 11 -8 11 -13z m2598
-9 c0 -8 -4 -17 -8 -20 -13 -8 -35 11 -28 23 10 16 36 14 36 -3z m-2735 -95
c-14 -105 -18 -111 -59 -95 -12 5 -16 21 -16 68 0 71 9 84 51 78 29 -4 30 -5
24 -51z m75 34 c0 -8 -4 -15 -9 -15 -13 0 -22 16 -14 24 11 11 23 6 23 -9z
m2560 1 c0 -20 -19 -31 -32 -18 -6 6 -7 15 -4 21 10 16 36 13 36 -3z m-2520
-76 c0 -5 -4 -10 -10 -10 -5 0 -10 5 -10 10 0 6 5 10 10 10 6 0 10 -4 10 -10z
m2560 -56 c0 -8 -7 -14 -15 -14 -15 0 -21 21 -9 33 10 9 24 -2 24 -19z m-2615
6 c3 -5 -1 -10 -10 -10 -9 0 -13 5 -10 10 3 6 8 10 10 10 2 0 7 -4 10 -10z
m2521 -51 c10 -17 -13 -36 -27 -22 -12 12 -4 33 11 33 5 0 12 -5 16 -11z
m-1202 -111 c21 -43 31 -78 28 -93 -5 -28 -13 -30 -44 -14 -18 10 -19 9 -14
-19 9 -38 -8 -50 -65 -44 -42 3 -47 6 -45 28 0 13 7 24 14 24 25 0 11 20 -35
46 l-46 28 39 13 c57 20 59 32 12 80 -23 24 -40 43 -38 43 3 0 30 -7 60 -15
71 -19 73 -19 64 8 -14 46 36 -14 70 -85z m-1295 13 c24 -19 24 -19 4 -32 -12
-7 -19 -18 -16 -25 2 -7 -7 -20 -21 -29 -24 -16 -39 -44 -16 -30 6 3 10 3 10
-2 -1 -18 -28 -51 -84 -103 -33 -30 -52 -44 -43 -30 27 39 21 40 -38 8 -61
-33 -67 -30 -30 13 19 23 22 35 15 53 -6 17 -4 30 7 45 19 27 16 30 -44 45
l-48 13 70 12 c39 6 92 15 120 19 l49 7 -44 27 -45 27 65 0 c48 1 71 -4 89
-18z m2544 -8 c9 -9 -13 -34 -24 -27 -14 8 -11 34 4 34 8 0 17 -3 20 -7z
m-2488 -63 c-3 -5 -12 -10 -18 -10 -7 0 -6 4 3 10 19 12 23 12 15 0z m2375
-10 c0 -19 -20 -27 -33 -13 -8 7 11 33 24 33 5 0 9 -9 9 -20z m43 -115 c1 -5
-6 -11 -15 -13 -11 -2 -18 3 -18 13 0 17 30 18 33 0z m-1139 -3 c3 -5 -1 -9
-9 -9 -8 0 -12 4 -9 9 3 4 7 8 9 8 2 0 6 -4 9 -8z m31 -1 c3 -5 2 -12 -3 -15
-5 -3 -9 1 -9 9 0 17 3 19 12 6z m985 -61 c0 -11 -7 -20 -15 -20 -8 0 -15 9
-15 20 0 11 7 20 15 20 8 0 15 -9 15 -20z m341 -67 c-12 -20 -14 -14 -5 12 4
9 9 14 11 11 3 -2 0 -13 -6 -23z m-2883 -30 c4 -26 -32 -66 -56 -61 -25 5 -26
40 -1 66 25 28 53 25 57 -5z m2582 -7 c0 -20 -19 -31 -32 -18 -6 6 -7 15 -4
21 10 16 36 13 36 -3z m298 -3 c20 -19 14 -56 -19 -121 -32 -66 -71 -104 -95
-95 -8 3 -14 4 -14 2 0 -2 -14 -37 -30 -78 -34 -84 -37 -101 -14 -101 45 0
-16 -174 -71 -204 -11 -6 -22 -12 -24 -13 -4 -2 -30 -158 -31 -180 0 -7 7 -13
16 -13 34 0 -11 -146 -60 -195 -15 -14 -31 -23 -36 -20 -6 4 -22 -19 -36 -52
-20 -46 -23 -62 -15 -76 12 -18 -8 -61 -62 -140 l-19 -28 -34 49 -33 50 16 41
c9 23 20 41 25 41 4 0 8 11 8 25 l0 25 39 -19 38 -20 13 27 c44 95 44 90 3
109 -21 10 -40 18 -41 20 -2 1 6 45 18 98 l22 97 37 -7 c20 -3 43 -8 51 -10
27 -8 37 9 52 93 17 94 20 89 -60 107 -18 4 -36 13 -39 21 -3 7 0 46 7 86 19
119 13 111 87 105 35 -2 72 -3 81 0 10 2 27 30 41 66 13 34 30 72 37 84 16 25
13 28 -41 37 -80 14 -78 7 -32 112 l42 96 80 -4 c44 -1 86 -8 93 -15z m-418
-58 c0 -8 -7 -15 -15 -15 -8 0 -15 7 -15 15 0 8 7 15 15 15 8 0 15 -7 15 -15z
m-2440 -16 c0 -5 -7 -9 -15 -9 -15 0 -20 12 -9 23 8 8 24 -1 24 -14z m1854
-45 c21 -20 20 -53 0 -61 -36 -13 -68 33 -44 62 16 19 25 19 44 -1z m623 -30
c-3 -3 -12 -4 -19 -1 -8 3 -5 6 6 6 11 1 17 -2 13 -5z m-2047 -95 c0 -5 -7 -9
-15 -9 -15 0 -20 12 -9 23 8 8 24 -1 24 -14z m1115 -39 c-5 -8 -11 -8 -17 -2
-6 6 -7 16 -3 22 5 8 11 8 17 2 6 -6 7 -16 3 -22z m-795 -20 c0 -11 -7 -20
-15 -20 -15 0 -21 21 -8 33 12 13 23 7 23 -13z m380 -30 c0 -5 -4 -10 -10 -10
-5 0 -10 5 -10 10 0 6 5 10 10 10 6 0 10 -4 10 -10z m-160 -497 c14 -26 38
-69 53 -96 15 -27 26 -51 24 -54 -3 -2 -22 3 -43 11 -55 22 -155 36 -254 36
l-85 1 103 99 103 100 37 -25 c21 -13 48 -46 62 -72z m-669 5 c18 -40 43 -93
54 -118 42 -94 123 -210 146 -210 8 0 94 126 104 152 5 13 145 24 145 12 0 -3
-5 -14 -11 -25 -10 -19 -8 -21 23 -19 57 3 58 2 33 -42 -31 -58 -42 -108 -22
-108 29 0 38 -73 10 -88 -15 -9 -14 -12 5 -43 62 -101 177 -120 262 -43 56 50
79 105 82 192 1 39 6 72 11 72 11 0 35 -60 43 -109 5 -33 2 -48 -21 -87 -30
-51 -98 -130 -125 -144 -10 -6 -33 -3 -60 6 -56 19 -144 15 -148 -7 -3 -18 30
-34 92 -45 37 -6 38 -7 17 -19 -19 -10 -20 -13 -8 -23 8 -7 32 -18 53 -26 l39
-14 -36 -15 c-78 -34 -209 -51 -384 -51 -150 1 -181 4 -267 27 -54 14 -129 42
-167 62 -84 45 -171 131 -171 170 0 22 3 26 18 20 37 -15 87 -16 106 -2 26 19
14 33 -42 46 -55 14 -66 40 -27 65 l24 16 -22 47 c-15 33 -21 68 -22 114 0 70
13 99 45 99 17 0 18 -7 13 -75 -5 -65 -4 -75 11 -75 9 0 16 -2 16 -4 0 -2 3
-11 6 -19 3 -8 -2 -22 -11 -31 -14 -14 -15 -22 -6 -48 29 -83 68 -101 98 -45
21 41 29 176 14 247 -8 37 -8 57 -1 64 20 20 10 36 -34 58 l-45 21 56 59 c31
32 60 58 63 58 4 0 22 -33 41 -72z m-560 -654 c33 -40 3 -73 -34 -36 -17 17
-18 23 -7 36 16 20 24 20 41 0z m105 -44 c8 0 14 -9 14 -19 0 -16 -5 -18 -27
-12 -16 4 -30 16 -32 26 -2 13 1 16 14 11 9 -3 23 -6 31 -6z m118 -35 c-4 -8
-17 -15 -30 -15 -15 0 -24 6 -24 15 0 10 10 15 30 15 22 0 28 -4 24 -15z m84
3 c-3 -7 -13 -13 -23 -13 -10 0 -20 6 -22 13 -3 7 5 12 22 12 17 0 25 -5 23
-12z m-588 -18 c0 -5 -4 -10 -10 -10 -5 0 -10 5 -10 10 0 6 5 10 10 10 6 0 10
-4 10 -10z m1643 -44 c10 -8 15 -20 11 -30 -8 -20 -14 -20 -42 0 -18 13 -21
19 -11 30 14 17 19 17 42 0z m125 -64 c2 -8 -8 -12 -27 -12 -29 0 -41 16 -25
33 8 8 47 -8 52 -21z m-599 -18 c-8 -9 -12 -28 -11 -42 4 -29 -49 -153 -63
-148 -5 1 -11 38 -13 82 l-3 80 48 21 c26 12 50 21 52 22 2 1 -3 -6 -10 -15z
m725 -4 c7 -7 -1 -10 -21 -10 -17 0 -37 8 -44 17 -13 15 -11 16 21 9 19 -3 39
-11 44 -16z m126 0 c0 -5 -18 -10 -40 -10 -22 0 -40 5 -40 10 0 6 18 10 40 10
22 0 40 -4 40 -10z m-552 -55 c-3 -3 -9 2 -12 12 -6 14 -5 15 5 6 7 -7 10 -15
7 -18z m1762 15 c0 -5 -7 -10 -16 -10 -8 0 -12 5 -9 10 3 6 10 10 16 10 5 0 9
-4 9 -10z m-2003 -18 c9 -6 -4 -24 -43 -62 -53 -52 -55 -53 -39 -20 22 44 54
90 63 90 4 0 13 -4 19 -8z m1923 -2 c0 -5 -4 -10 -10 -10 -5 0 -10 5 -10 10 0
6 5 10 10 10 6 0 10 -4 10 -10z m-1700 -13 c0 -22 -61 -87 -82 -87 -11 0 -67
-12 -125 -26 -58 -14 -107 -24 -109 -22 -2 3 19 28 46 56 38 39 62 55 102 66
92 26 168 32 168 13z m1690 -67 c0 -5 -4 -10 -10 -10 -5 0 -10 5 -10 10 0 6 5
10 10 10 6 0 10 -4 10 -10z m-80 -20 c0 -5 -2 -10 -4 -10 -3 0 -8 5 -11 10 -3
6 -1 10 4 10 6 0 11 -4 11 -10z m-1935 -68 c34 -18 57 -50 60 -82 3 -30 2 -30
-16 -14 -10 9 -16 21 -13 25 3 5 -3 6 -12 2 -12 -4 -15 -3 -10 5 5 8 0 12 -14
12 -12 0 -19 4 -15 9 3 6 -4 8 -16 6 -12 -3 -29 0 -38 6 -14 9 -14 10 2 5 10
-3 15 -2 12 3 -6 10 -51 8 -62 -2 -3 -4 -18 -7 -32 -7 l-26 1 29 25 c24 22 36
25 80 21 28 -2 61 -9 71 -15z m1905 -2 c0 -5 -4 -10 -10 -10 -5 0 -10 5 -10
10 0 6 5 10 10 10 6 0 10 -4 10 -10z m-1610 -30 c0 -13 -7 -20 -20 -20 -25 0
-26 16 -2 29 23 14 22 14 22 -9z m-337 -35 c9 -4 17 -12 17 -18 0 -6 3 -8 6
-5 5 6 64 -49 64 -59 0 -2 -17 9 -37 26 -21 16 -60 35 -88 42 -59 14 -64 17
-46 28 13 8 41 3 84 -14z m-103 5 c0 -5 -3 -9 -7 -9 -5 1 -10 0 -13 -1 -3 -1
-13 -3 -23 -5 -15 -3 -16 -1 -6 11 13 16 49 19 49 4z m427 -110 l0 -90 -32 -6
c-44 -8 -103 18 -115 51 -14 38 -12 72 5 79 23 8 18 28 -5 21 -32 -10 -23 5
13 20 17 8 55 14 83 15 l50 0 1 -90z m-349 55 c13 -14 13 -16 2 -10 -8 5 -3
-3 13 -18 17 -17 27 -36 27 -55 0 -33 -14 -42 -64 -42 -27 0 -32 4 -34 26 -1
15 5 32 13 38 8 6 17 22 20 35 2 13 2 21 -2 18 -3 -4 -12 1 -20 11 -8 9 -11
11 -7 3 5 -11 3 -13 -10 -8 -10 4 -15 3 -11 -3 3 -6 2 -10 -2 -10 -5 0 -9 -16
-10 -36 -1 -41 -5 -47 -26 -38 -18 6 -27 26 -33 71 -4 37 6 42 79 38 31 -2 55
-9 65 -20z m-83 -225 c31 -61 35 -79 40 -176 3 -60 8 -125 10 -146 4 -31 -2
-47 -46 -112 -69 -102 -166 -207 -184 -199 -10 3 -15 -1 -15 -11 0 -27 -23
-28 -80 -7 -29 11 -56 18 -60 16 -8 -5 -58 46 -83 85 -10 13 -17 36 -17 50 l1
25 20 -24 c14 -18 23 -21 31 -13 11 11 8 24 -17 58 -14 19 -12 25 36 90 29 38
97 120 152 183 93 105 157 206 157 247 0 27 20 3 55 -66z m385 -56 c17 -20 36
-47 42 -60 6 -13 15 -24 20 -24 4 0 8 -15 8 -34 0 -39 26 -75 143 -196 45 -46
73 -77 61 -67 -28 24 -30 22 -26 -21 4 -45 -15 -125 -28 -117 -10 6 -80 -35
-80 -48 0 -15 31 -19 48 -6 13 10 12 7 -3 -10 -30 -36 -47 -54 -79 -78 -32
-25 -30 -28 9 -13 14 5 24 6 21 1 -15 -24 -125 -46 -231 -46 -105 0 -114 2
-177 33 -77 38 -158 121 -158 161 l0 25 30 -29 c24 -23 33 -26 42 -17 10 10 6
19 -19 42 l-31 29 41 73 c23 40 53 88 65 106 13 18 41 72 62 121 52 120 98
199 118 204 9 3 33 5 53 6 31 1 42 -5 69 -35z m1610 -114 c0 -66 -1 -70 -27
-83 -33 -16 -210 -53 -218 -45 -11 11 7 34 57 72 54 42 177 126 184 126 2 0 4
-31 4 -70z m-955 26 c28 -13 87 -52 130 -88 44 -35 100 -79 124 -96 l44 -32
-94 -2 c-260 -5 -608 17 -632 41 -15 15 15 54 85 109 116 91 242 116 343 68z
m1041 -226 c-9 -40 -18 -75 -21 -78 -3 -3 -48 2 -101 11 -93 17 -180 50 -170
66 11 17 287 86 304 75 1 -1 -4 -34 -12 -74z m-444 44 c10 -21 9 -27 -3 -35
-22 -14 -28 -11 -35 15 -12 47 19 63 38 20z m-282 -75 c0 -6 -4 -7 -10 -4 -5
3 -10 11 -10 16 0 6 5 7 10 4 6 -3 10 -11 10 -16z m140 -226 c-11 -17 -11 -17
-6 0 3 10 6 24 7 30 0 9 2 9 5 0 3 -7 0 -20 -6 -30z m-190 -53 c0 -5 -4 -10
-10 -10 -5 0 -10 5 -10 10 0 6 5 10 10 10 6 0 10 -4 10 -10z m146 -38 c-18
-16 -18 -16 -6 6 6 13 14 21 18 18 3 -4 -2 -14 -12 -24z m-122 -17 c9 -25 -5
-45 -30 -45 -26 0 -40 20 -30 45 3 8 16 15 30 15 13 0 26 -7 30 -15z m66 -60
c-7 -9 -15 -13 -18 -10 -3 2 1 11 8 20 7 9 15 13 18 10 3 -2 -1 -11 -8 -20z
m-60 -60 c0 -2 -10 -10 -22 -16 -21 -11 -22 -11 -9 4 13 16 31 23 31 12z
m-144 -100 c-11 -8 -24 -15 -30 -15 -5 0 -1 7 10 15 10 8 24 14 29 14 6 0 1
-6 -9 -14z m-1606 -35 c8 -5 11 -10 5 -10 -5 0 -17 5 -25 10 -8 5 -10 10 -5
10 6 0 17 -5 25 -10z m1520 -9 c0 -5 -10 -11 -22 -14 -22 -6 -22 -6 -4 8 23
17 26 18 26 6z m-1420 -41 c8 -5 11 -10 5 -10 -5 0 -17 5 -25 10 -8 5 -10 10
-5 10 6 0 17 -5 25 -10z m1310 -10 c-20 -13 -33 -13 -25 0 3 6 14 10 23 10 15
0 15 -2 2 -10z m-95 -30 c-27 -12 -43 -12 -25 0 8 5 22 9 30 9 10 0 8 -3 -5
-9z m-95 -20 c0 -5 -10 -10 -22 -9 -22 0 -22 1 -3 9 11 5 21 9 23 9 1 1 2 -3
2 -9z m-930 -36 c0 -2 -9 0 -20 6 -11 6 -20 13 -20 16 0 2 9 0 20 -6 11 -6 20
-13 20 -16z m830 22 c0 -2 -11 -6 -25 -8 -14 -3 -25 -1 -25 3 0 5 11 9 25 9
14 0 25 -2 25 -4z m-117 -13 c-7 -2 -19 -2 -25 0 -7 3 -2 5 12 5 14 0 19 -2
13 -5z m-98 -13 c-27 -12 -43 -12 -25 0 8 5 22 9 30 9 10 0 8 -3 -5 -9z m-525
-20 c13 -8 13 -10 -2 -10 -9 0 -20 5 -23 10 -8 13 5 13 25 0z m423 -7 c-7 -2
-19 -2 -25 0 -7 3 -2 5 12 5 14 0 19 -2 13 -5z m-303 -19 c0 -2 -11 -4 -25 -4
-14 0 -25 4 -25 9 0 4 11 6 25 3 14 -2 25 -6 25 -8z m205 6 c-3 -5 -16 -10
-28 -9 -21 0 -21 1 -2 9 28 12 37 12 30 0z m-112 -7 c-7 -2 -19 -2 -25 0 -7 3
-2 5 12 5 14 0 19 -2 13 -5z m62 -104 c3 -4 3 -20 -1 -34 -5 -22 -11 -25 -50
-25 -47 0 -52 8 -35 52 8 21 14 24 45 20 20 -2 39 -8 41 -13z"/>
<path d="M2670 2381 c0 -13 29 -35 37 -28 7 8 -15 37 -28 37 -5 0 -9 -4 -9 -9z"/>
<path d="M2950 1890 c0 -5 11 -10 25 -10 14 0 25 5 25 10 0 6 -11 10 -25 10
-14 0 -25 -4 -25 -10z"/>
<path d="M2276 1103 c-14 -14 -4 -32 26 -51 31 -20 48 -21 48 -3 0 13 -67 61
-74 54z"/>
<path d="M2696 1023 c-14 -14 -4 -30 29 -46 44 -21 45 -21 45 1 0 19 -62 56
-74 45z"/>
<path d="M3028 992 c-40 -16 -48 -29 -23 -38 21 -8 75 15 75 32 0 20 -12 22
-52 6z"/>
<path d="M2837 956 c-4 -11 1 -18 17 -22 36 -9 71 -1 71 16 0 22 -80 27 -88 6z"/>
</g>
</svg>
