<?xml version="1.0" standalone="no"?>
<!DOCTYPE svg PUBLIC "-//W3C//DTD SVG 20010904//EN"
 "http://www.w3.org/TR/2001/REC-SVG-20010904/DTD/svg10.dtd">
<svg version="1.0" xmlns="http://www.w3.org/2000/svg"
 width="1000.000000pt" height="1000.000000pt" viewBox="0 0 1000.000000 1000.000000"
 preserveAspectRatio="xMidYMid meet">
<metadata>
Created by potrace 1.11, written by Peter Selinger 2001-2013
</metadata>
<g transform="translate(0.000000,1000.000000) scale(0.100000,-0.100000)"
fill="#000000" stroke="none">
<path d="M3709 9844 c-220 -239 -232 -256 -302 -414 -50 -113 -76 -205 -97
-345 -21 -141 -28 -164 -64 -203 -19 -22 -26 -23 -93 -17 -63 6 -76 5 -106
-14 -19 -12 -86 -42 -148 -66 -110 -43 -118 -45 -222 -45 -144 0 -147 -2 -140
-90 9 -103 23 -104 -262 18 -189 81 -241 98 -430 147 -238 61 -493 102 -812
131 -163 14 -215 15 -350 6 -160 -12 -338 -46 -475 -93 -82 -28 -164 -49 -188
-49 -19 0 -20 -9 -20 -282 l0 -282 31 -66 c45 -93 54 -110 130 -255 128 -246
181 -388 243 -651 42 -178 48 -255 36 -436 -6 -89 -8 -202 -4 -252 9 -122 67
-312 137 -446 43 -83 209 -323 292 -423 59 -72 75 -99 90 -152 9 -36 15 -75
12 -87 -8 -32 -92 -112 -110 -105 -8 3 -17 23 -20 44 -8 45 -45 118 -125 248
-48 75 -103 143 -274 329 -31 34 -166 271 -177 312 -27 95 -8 405 38 643 16
77 14 133 -9 253 -36 197 -111 423 -175 528 -12 19 -42 73 -66 120 l-44 85 -3
-1129 -2 -1128 52 -57 c28 -31 60 -76 71 -101 10 -25 30 -68 42 -95 13 -28 27
-64 31 -80 4 -17 22 -51 41 -77 18 -26 33 -54 33 -61 0 -8 -26 -17 -74 -24
-40 -7 -100 -25 -132 -40 l-59 -28 -3 -71 c-3 -70 -2 -72 33 -107 19 -19 35
-44 35 -54 0 -11 13 -29 29 -41 30 -22 51 -85 51 -152 0 -17 2 -30 5 -30 3 0
32 27 64 60 l59 60 107 0 c88 0 106 -3 102 -14 -12 -29 -176 -275 -239 -356
-36 -47 -107 -130 -157 -185 l-91 -100 0 -991 0 -991 31 -7 c17 -3 46 -6 63
-6 17 0 56 -10 86 -22 30 -12 80 -27 110 -33 35 -7 56 -17 58 -27 3 -15 -97
-146 -123 -160 -7 -4 -47 3 -89 16 -41 13 -89 27 -106 31 l-30 7 0 -971 0
-971 1207 0 1207 0 101 49 c206 101 253 121 355 155 147 49 224 59 419 53 185
-5 374 -25 561 -58 69 -12 150 -25 180 -29 30 -4 68 -12 83 -18 35 -15 117
-16 117 -2 0 6 -1 10 -2 10 -2 1 -39 8 -83 17 -44 8 -105 18 -135 20 -37 3
-65 13 -86 29 -57 43 -212 334 -200 376 3 13 27 39 53 58 26 19 89 77 141 129
96 97 121 106 102 41 -14 -48 -12 -121 4 -215 17 -95 25 -116 66 -183 17 -28
40 -77 52 -109 21 -60 34 -83 49 -83 13 0 10 40 -7 85 -29 76 -55 188 -52 224
l3 36 31 -55 c18 -30 48 -71 68 -89 20 -19 36 -43 36 -52 0 -9 10 -23 23 -32
16 -10 26 -32 36 -78 8 -42 24 -79 47 -110 19 -26 34 -54 34 -63 0 -8 11 -18
25 -22 28 -7 45 -31 45 -63 0 -37 15 -22 29 26 11 45 11 49 -10 65 -11 10 -27
18 -33 18 -41 0 -126 147 -126 219 0 36 3 40 60 70 67 36 80 50 57 62 -42 24
-63 195 -48 396 9 110 14 138 33 168 13 19 26 35 29 35 10 0 58 -49 97 -98 18
-23 42 -42 52 -42 33 0 44 -38 42 -137 -2 -70 1 -93 10 -93 8 -1 7 -5 -4 -14
-15 -11 -17 -25 -11 -114 5 -89 4 -105 -12 -122 -10 -11 -21 -18 -24 -15 -4 2
-13 0 -21 -6 -11 -6 -7 -9 15 -9 17 0 40 -8 51 -18 38 -31 48 -62 47 -151 -2
-111 4 -125 106 -238 l20 -23 489 0 490 0 10 28 c6 15 12 36 14 47 5 29 84 84
220 152 169 84 212 96 335 96 106 0 111 -1 176 -56 l29 -24 -16 -48 c-9 -26
-19 -80 -23 -121 l-6 -74 196 0 195 0 8 32 c17 82 89 278 125 347 49 91 57
100 134 159 77 60 251 210 290 252 71 76 141 100 275 95 273 -10 421 -19 426
-27 18 -28 -60 -116 -141 -159 -50 -27 -154 -48 -264 -54 -122 -6 -168 -23
-226 -84 -21 -22 -44 -41 -51 -41 -21 0 -39 -29 -25 -43 9 -9 36 1 119 43
l107 55 194 3 c117 2 198 -1 204 -7 6 -6 -11 -34 -47 -80 -79 -99 -111 -127
-192 -165 -80 -38 -170 -94 -229 -141 -40 -31 -94 -62 -147 -84 -28 -11 -38
-31 -16 -31 7 0 30 6 53 14 22 8 76 22 120 31 44 10 103 24 132 31 66 18 107
18 142 -1 16 -8 64 -22 107 -31 43 -8 87 -20 96 -25 25 -13 22 -53 -4 -72 -22
-15 -19 -16 50 -16 39 -1 72 1 72 4 0 3 -32 70 -70 150 -71 148 -110 240 -110
262 0 7 20 42 45 79 51 75 56 106 20 130 -36 24 -31 37 10 30 24 -5 47 -1 73
10 20 9 55 24 77 34 22 9 54 23 70 31 l30 14 -57 3 c-32 2 -58 7 -58 12 0 6
-5 10 -11 10 -6 0 -9 -9 -6 -20 3 -11 1 -18 -3 -15 -5 3 -11 1 -15 -5 -4 -6
-10 -8 -15 -5 -5 3 -11 1 -15 -5 -3 -5 -15 -15 -25 -20 -16 -8 -13 -1 10 34
17 24 30 48 30 54 0 5 7 15 15 22 20 16 19 84 -1 104 -25 26 -63 30 -102 12
-19 -9 -38 -13 -43 -9 -8 9 13 169 38 278 8 39 18 88 20 110 8 63 20 63 38 -1
18 -62 55 -141 133 -286 38 -71 61 -99 125 -153 42 -37 77 -71 77 -76 0 -5 9
-9 20 -9 15 0 20 7 20 28 0 21 -17 42 -78 99 -60 55 -87 88 -113 140 -18 37
-46 89 -61 114 -15 25 -28 53 -28 61 0 8 -9 23 -19 32 -11 10 -27 38 -35 62
-8 25 -23 55 -34 68 -15 20 -17 34 -11 91 5 53 13 74 38 106 17 21 46 58 63
81 18 24 56 68 84 98 28 30 58 67 68 83 10 15 22 27 27 27 15 0 21 -66 10
-106 -7 -22 -16 -73 -21 -114 -6 -41 -14 -104 -19 -140 -10 -76 -4 -95 45
-149 30 -34 33 -42 20 -47 -26 -10 -19 -24 22 -41 31 -13 62 -14 187 -9 83 4
170 9 195 12 74 10 87 -8 124 -167 28 -121 30 -149 30 -294 -1 -234 -11 -295
-66 -425 -43 -101 -122 -223 -163 -253 -13 -9 -50 -20 -82 -23 -39 -4 -68 -14
-87 -29 l-29 -23 64 4 c156 12 177 21 222 96 12 20 38 56 58 80 19 24 50 79
68 123 18 44 39 95 47 113 8 18 14 49 14 68 0 19 4 43 9 53 16 28 89 74 110
68 42 -11 45 3 55 210 9 214 5 255 -36 315 -13 19 -37 64 -53 101 l-30 68 -54
-7 c-30 -3 -65 -10 -77 -14 -12 -5 -112 -12 -221 -16 -197 -6 -198 -6 -233 17
-85 59 -115 133 -89 219 5 19 14 67 18 105 5 39 14 99 21 134 10 50 10 75 0
118 -6 30 -10 56 -8 59 9 8 137 -134 143 -159 5 -18 27 -38 77 -68 71 -42 194
-156 278 -259 32 -39 46 -50 48 -37 4 20 -3 32 -48 87 -100 123 -156 186 -177
203 -29 24 -17 51 32 72 24 9 35 20 35 35 0 56 -126 235 -193 274 -24 14 -70
35 -102 46 -32 11 -78 32 -102 46 -34 20 -52 24 -81 20 -44 -7 -54 -2 -76 42
-16 31 -16 39 13 185 16 84 35 181 41 216 16 91 41 151 112 273 35 59 83 143
108 187 25 44 50 81 55 81 6 0 16 -15 23 -33 6 -17 53 -95 103 -172 108 -164
214 -339 248 -410 13 -27 43 -79 66 -115 23 -36 64 -105 90 -155 26 -49 66
-124 88 -165 41 -78 44 -82 70 -140 34 -75 57 -129 57 -134 0 -2 13 -33 28
-68 16 -35 37 -83 46 -108 10 -25 23 -56 28 -70 20 -48 49 -141 58 -183 4 -23
19 -85 33 -137 28 -108 47 -231 47 -305 1 -27 0 -269 -1 -537 l-2 -488 162 0
161 0 0 1444 0 1445 -26 73 c-15 40 -38 96 -51 123 -41 82 -151 242 -191 276
-20 17 -109 102 -197 188 -88 86 -179 171 -202 190 -87 69 -91 81 -101 301 -8
183 -4 328 16 685 7 121 14 164 35 224 31 87 15 78 -37 -21 -30 -58 -34 -72
-25 -97 7 -20 7 -53 0 -103 -5 -40 -13 -127 -16 -193 -7 -134 -28 -347 -51
-505 -10 -71 -12 -124 -7 -164 9 -65 33 -90 33 -34 0 67 17 63 39 -10 11 -39
21 -77 21 -86 0 -24 99 -408 109 -420 4 -6 16 -36 26 -66 10 -30 43 -116 75
-191 64 -151 155 -416 224 -649 56 -194 131 -469 145 -535 6 -27 20 -90 31
-140 13 -57 24 -158 30 -275 5 -102 12 -228 16 -281 l7 -95 -45 -37 c-25 -20
-50 -37 -55 -37 -6 0 -22 -9 -37 -21 -14 -11 -27 -17 -27 -12 -4 29 4 141 12
153 9 17 8 20 14 -48 4 -43 9 -48 41 -33 26 12 26 12 21 104 -5 89 -23 259
-33 305 -9 45 -24 20 -24 -43 0 -35 -6 -84 -14 -107 -7 -24 -14 -62 -14 -86
-1 -23 -4 -47 -7 -52 -11 -18 -35 -10 -40 13 -16 75 -79 330 -92 372 -21 71
-70 200 -104 273 -16 34 -29 65 -29 68 0 13 -123 267 -164 339 -12 22 -40 72
-61 110 -20 39 -41 75 -45 80 -4 6 -38 69 -75 140 -86 166 -116 215 -240 405
-191 292 -170 247 -183 400 -7 74 -14 302 -17 505 -5 399 -3 427 48 574 22 63
56 125 119 215 11 15 24 40 27 55 11 40 43 38 90 -5 53 -47 52 -32 0 31 -23
28 -59 86 -80 130 -21 44 -61 123 -90 175 -96 177 -101 189 -95 206 6 14 9 15
29 1 12 -8 38 -18 57 -22 l35 -7 -35 38 c-19 22 -52 58 -74 81 -22 24 -36 48
-33 56 6 15 128 38 208 39 41 0 50 -5 210 -113 31 -20 72 -44 92 -52 l36 -16
-6 52 c-6 59 -28 97 -121 207 -100 118 -155 208 -196 320 -35 95 -38 110 -34
182 6 99 20 116 56 68 40 -53 117 -128 108 -105 -32 78 -42 269 -16 320 20 39
55 45 64 11 8 -33 56 -104 56 -83 0 9 -4 19 -10 22 -13 8 -13 57 0 104 5 20
18 86 30 146 11 61 27 144 35 185 32 162 75 381 95 490 12 63 27 144 35 180 8
36 35 173 60 305 26 132 59 305 75 385 16 80 45 231 65 335 20 105 43 222 51
260 15 73 58 294 93 480 12 61 28 142 36 180 8 39 30 156 50 260 52 272 73
380 81 410 l6 25 -193 -2 -194 -3 -28 -140 c-15 -77 -34 -171 -42 -210 -8 -38
-24 -122 -35 -185 -12 -63 -26 -131 -30 -150 -5 -19 -18 -87 -30 -150 -11 -63
-25 -133 -30 -155 -5 -22 -25 -123 -44 -225 -20 -102 -43 -219 -51 -260 -19
-93 -91 -464 -139 -710 -36 -186 -56 -286 -82 -415 -8 -38 -23 -119 -35 -180
-11 -60 -27 -139 -34 -175 -8 -36 -28 -139 -45 -230 -17 -91 -38 -196 -46
-235 -8 -38 -37 -185 -64 -325 -27 -140 -56 -286 -64 -325 -8 -38 -18 -88 -21
-110 -11 -72 -89 -204 -109 -184 -3 3 -7 110 -10 239 -6 283 -21 391 -91 635
-52 182 -120 342 -186 437 -11 14 -19 29 -19 32 0 9 -61 107 -98 156 -73 98
-264 297 -387 404 -168 146 -363 300 -466 369 -61 42 -40 55 50 34 38 -9 97
-17 132 -17 90 0 313 28 389 50 161 44 371 162 466 262 23 24 74 86 113 138
105 142 232 308 264 345 53 64 28 61 -50 -6 -52 -45 -142 -94 -313 -172 -53
-24 -248 -95 -340 -123 -48 -16 -278 -67 -400 -89 -41 -8 -116 -17 -165 -21
-111 -8 -392 12 -421 31 -13 8 -26 10 -36 4 -16 -9 -58 0 -243 51 -44 12 -93
26 -110 31 -71 19 -362 120 -457 157 -34 14 -47 39 -41 78 5 34 -9 67 -65 152
l-35 52 19 78 c16 65 19 113 18 317 -1 317 -23 509 -77 695 l-13 45 -217 3
c-119 1 -217 1 -217 -1 0 -3 14 -35 31 -73 25 -55 35 -94 46 -194 12 -110 12
-137 -2 -224 -9 -55 -18 -103 -21 -108 -18 -29 -72 -456 -75 -593 -2 -110 2
-105 -94 -105 -46 0 -86 4 -89 9 -8 13 11 202 29 286 38 179 55 497 35 639
-12 79 -37 123 -157 274 l-74 92 -648 0 -648 0 -144 -156z m191 -609 c-100
-100 -137 -127 -123 -87 13 37 58 85 126 137 40 30 79 54 87 54 8 1 -32 -46
-90 -104z m-2682 -504 c17 -10 -65 -40 -224 -82 -96 -26 -140 -32 -229 -33
-93 -1 -115 2 -140 18 -27 18 -28 20 -10 27 11 4 32 5 47 2 14 -3 39 2 55 10
32 17 248 56 338 60 129 7 150 6 163 -2z m5552 -1028 c190 -128 374 -360 481
-607 41 -93 53 -149 19 -84 -11 20 -36 49 -56 65 -20 15 -61 58 -90 95 -30 37
-70 79 -90 95 l-36 27 -42 -23 c-65 -35 -146 -76 -204 -101 -29 -13 -57 -29
-63 -36 -6 -7 -27 -21 -47 -32 -37 -19 -192 -72 -212 -72 -18 0 -11 16 13 28
12 7 49 28 82 47 33 20 88 49 123 66 34 18 81 48 105 68 23 20 65 54 93 74 62
45 79 69 89 125 l7 43 -146 148 c-140 140 -183 194 -113 137 17 -14 57 -42 87
-63z m-4266 -818 c-55 -125 -100 -281 -92 -321 2 -11 13 -20 26 -22 12 -2 29
-16 37 -32 15 -29 16 -29 54 -16 32 12 47 12 96 1 64 -15 72 -23 80 -75 8 -53
56 -141 98 -182 26 -25 37 -44 35 -59 -4 -29 -26 -36 -34 -12 -4 10 -38 47
-76 83 -66 62 -70 68 -77 122 -4 32 -10 61 -13 64 -4 3 -25 8 -47 11 -34 5
-49 0 -91 -27 -28 -18 -65 -50 -83 -71 -54 -63 -113 -195 -128 -285 -18 -112
-26 -119 -34 -30 -9 89 -3 173 21 297 8 46 19 118 23 159 4 41 15 93 23 115
18 47 83 174 133 260 19 33 38 67 42 75 3 8 11 21 17 29 23 30 17 -25 -10 -84z
m5276 -276 c74 -123 160 -263 191 -309 164 -251 333 -550 428 -762 11 -26 21
-67 21 -92 0 -30 5 -48 15 -53 35 -20 58 -256 35 -358 -6 -27 -22 -110 -35
-184 -14 -74 -27 -136 -30 -140 -40 -39 -55 340 -21 504 22 107 31 180 17 150
-27 -62 -70 -298 -70 -385 0 -57 10 -125 51 -341 10 -48 8 -72 -16 -185 -15
-71 -31 -153 -36 -183 -5 -29 -23 -128 -40 -220 -18 -91 -34 -176 -36 -189 -8
-42 -35 -20 -112 93 -41 61 -103 151 -137 200 -86 127 -217 346 -258 435 -97
209 -112 250 -89 250 4 0 47 -50 96 -110 91 -115 126 -146 286 -260 96 -68
137 -92 178 -104 43 -14 21 13 -72 88 -127 102 -151 132 -213 264 -87 183 -93
216 -93 556 0 359 -13 560 -54 851 -30 217 -43 278 -102 485 -7 25 -22 72 -34
105 -30 81 -37 129 -19 123 8 -3 75 -106 149 -229z m-2350 100 c0 -13 -240
-129 -267 -129 -17 0 -50 -11 -228 -74 -87 -31 -280 -74 -391 -87 -83 -10
-107 -9 -489 21 -228 18 -604 40 -700 40 -172 0 -244 24 -97 32 81 4 535 -6
808 -18 131 -6 173 -4 230 9 38 9 101 19 139 22 118 11 287 43 415 80 67 19
132 35 145 35 12 0 57 11 98 25 60 19 206 44 325 54 6 1 12 -4 12 -10z m751
-525 c19 -32 47 -88 61 -124 37 -92 128 -280 136 -280 4 0 12 -19 18 -42 6
-24 23 -81 37 -128 16 -54 22 -89 16 -96 -5 -6 -29 -19 -53 -28 -24 -9 -47
-24 -50 -31 -8 -21 25 -19 63 3 24 13 35 14 48 6 22 -13 30 -62 11 -69 -13 -5
-476 -85 -490 -85 -14 0 -9 42 13 109 11 36 26 86 34 111 41 130 55 221 76
469 8 96 8 150 0 188 -21 104 16 103 80 -3z m-307 -352 c18 -80 33 -219 42
-399 l7 -132 -34 -5 c-242 -42 -325 -56 -331 -56 -8 0 90 209 109 231 8 9 22
15 32 12 33 -9 87 141 111 312 20 135 39 146 64 37z m879 -264 l4 -127 -56 -9
c-31 -6 -57 -9 -59 -7 -2 2 13 50 32 107 20 58 36 111 36 119 0 18 33 66 36
53 1 -5 4 -66 7 -136z m1834 40 c-3 -13 -13 -59 -22 -103 -19 -91 -24 -103
-36 -84 -21 33 -5 160 24 197 17 21 40 15 34 -10z m448 -95 c4 -14 2 -23 -4
-23 -14 0 -2 -32 17 -47 9 -7 11 -13 6 -13 -26 0 -64 26 -58 40 4 8 8 26 9 40
1 14 3 29 3 35 3 13 18 -6 27 -32z m95 -104 c0 -7 8 -18 17 -25 10 -7 15 -15
12 -19 -7 -6 -59 37 -59 49 0 3 7 6 15 6 8 0 15 -5 15 -11z m-4665 -89 c40
-58 66 -110 60 -120 -10 -16 -74 -43 -88 -37 -14 5 -27 98 -26 187 0 50 -2 51
54 -30z m-170 -102 c23 -77 20 -103 -14 -127 -44 -32 -55 -28 -47 19 3 22 9
59 12 83 13 103 24 109 49 25z m-391 -45 c25 -32 56 -69 70 -82 14 -12 40 -40
56 -61 30 -37 30 -39 10 -45 -24 -8 -46 8 -56 38 -4 12 -34 58 -68 102 -75 97
-80 105 -67 105 5 0 30 -26 55 -57z m656 -42 c21 -41 13 -58 -32 -65 -24 -4
-58 -9 -75 -12 -31 -6 -33 -5 -33 24 0 23 8 35 33 51 42 27 93 28 107 2z
m-232 -83 c2 -12 -9 -17 -43 -23 -61 -9 -66 -1 -18 24 42 22 57 22 61 -1z
m4539 -270 c-3 -8 -6 -5 -6 6 -1 11 2 17 5 13 3 -3 4 -12 1 -19z m-5724 -45
c34 -45 47 -71 55 -118 7 -44 7 -62 -2 -67 -17 -12 -36 -9 -40 5 -4 18 -63
199 -71 220 -14 35 15 15 58 -40z m-380 -450 c43 -51 77 -98 76 -105 0 -7 -10
-31 -23 -53 -17 -31 -27 -40 -46 -38 -42 2 -149 21 -160 28 -20 12 -9 69 25
133 29 52 34 70 29 99 -10 55 13 40 99 -64z m4033 -280 c-23 -190 -191 -481
-435 -752 -103 -113 -456 -448 -508 -481 -40 -26 -50 -27 -172 -29 -85 -1
-153 3 -198 13 -37 9 -120 27 -183 41 -186 41 -328 81 -440 126 -58 23 -129
50 -158 60 -68 25 -248 132 -337 201 -39 29 -95 70 -125 90 -31 21 -68 53 -83
72 -15 19 -68 76 -117 127 -50 51 -90 98 -90 104 0 7 72 23 183 42 100 17 544
92 987 167 443 75 985 167 1205 205 220 38 417 69 439 70 l38 1 -6 -57z m723
-348 c16 -8 31 -21 35 -30 3 -8 18 -21 33 -27 38 -16 63 -38 63 -56 0 -21 -87
-8 -120 18 -64 52 -97 50 -160 -6 -45 -41 -65 -39 -75 5 -8 39 -3 46 48 73 80
40 130 47 176 23z m-315 -260 c19 -19 42 -35 53 -35 12 0 26 -7 33 -15 18 -22
-1 -40 -84 -80 -39 -19 -88 -44 -109 -57 l-39 -23 -39 42 c-27 30 -39 51 -39
72 0 26 8 34 58 62 31 18 68 41 81 51 34 26 48 23 85 -17z m467 -135 c103 -20
312 -180 375 -287 26 -45 26 -45 11 -106 -8 -34 -18 -82 -22 -107 -4 -25 -16
-63 -27 -84 -16 -32 -18 -43 -8 -61 10 -18 9 -33 -3 -71 -8 -27 -25 -103 -37
-169 -12 -66 -28 -149 -35 -185 -7 -36 -21 -103 -30 -150 -34 -173 -85 -421
-137 -665 -41 -196 -58 -281 -68 -348 -4 -32 -10 -61 -13 -64 -9 -8 -27 7 -27
23 0 27 -65 157 -132 265 -36 57 -68 112 -71 122 -4 9 -14 17 -23 17 -9 0 -27
9 -41 20 -43 33 -171 25 -325 -21 -75 -23 -108 -19 -183 25 -63 37 -86 81 -96
184 -13 129 -13 129 -224 188 -112 32 -148 57 -190 132 -21 36 -26 56 -22 86
6 46 -10 150 -29 188 -22 43 -17 64 24 97 21 16 50 51 63 76 l24 45 117 0 117
0 43 -57 c93 -124 160 -166 283 -178 39 -4 76 -12 82 -17 7 -6 25 -8 40 -5 16
3 57 -1 92 -9 36 -9 75 -13 87 -10 31 8 54 -2 54 -24 0 -23 -122 -200 -229
-331 -110 -135 -169 -267 -147 -326 5 -13 20 4 61 72 60 98 94 137 176 200 75
58 213 127 247 124 22 -3 37 7 76 49 66 71 79 56 36 -42 -19 -42 -31 -78 -28
-81 8 -9 96 112 128 175 15 30 39 89 55 130 15 41 58 139 96 217 38 79 69 147
69 153 0 5 10 30 22 55 18 38 20 49 10 65 -7 11 -12 52 -12 91 0 153 -72 304
-238 502 -46 55 -71 94 -68 103 3 9 10 13 15 10 5 -4 33 -11 62 -16z m-3268
-352 c19 -22 22 -69 7 -97 -7 -14 -3 -23 17 -40 l25 -23 -24 -12 c-14 -7 -55
-19 -91 -26 l-66 -13 -36 31 c-19 18 -46 32 -59 32 -31 0 -94 -34 -153 -83
-122 -101 -197 -97 -198 10 0 76 -44 80 -120 11 -134 -121 -131 -121 -185 -63
l-25 27 35 29 c47 40 92 69 108 69 8 0 26 12 41 28 45 44 228 134 291 142 30
4 136 5 235 2 165 -4 182 -6 198 -24z m3467 -234 c25 -29 -7 -42 -125 -48
-101 -5 -107 -5 -80 9 17 8 37 14 45 15 9 0 40 9 70 20 67 24 74 24 90 4z
m-3262 -17 c2 -10 -3 -17 -12 -17 -9 0 -16 2 -16 4 0 2 -3 12 -6 21 -5 13 -2
16 12 13 10 -2 20 -11 22 -21z m277 -124 c22 -14 63 -46 90 -71 84 -75 278
-217 351 -257 97 -53 156 -93 176 -120 l17 -23 -42 13 c-23 7 -73 27 -112 43
-152 65 -297 106 -415 118 -93 9 -95 11 -96 91 -1 49 -10 91 -33 152 -17 47
-31 93 -31 104 0 18 1 18 28 -3 15 -11 45 -33 67 -47z m-3875 -7 c0 -14 -102
-216 -122 -242 -12 -17 -44 -59 -70 -94 -27 -34 -48 -68 -48 -76 0 -7 11 -21
24 -30 27 -17 153 -63 175 -64 7 0 33 21 57 47 48 53 67 55 29 3 -29 -39 -31
-50 -10 -50 16 0 127 55 177 87 36 23 44 13 22 -29 -10 -18 -20 -51 -23 -73
-5 -31 -12 -43 -35 -54 -27 -13 -30 -12 -47 10 -17 22 -20 23 -41 9 -63 -39
-94 -51 -125 -45 -22 4 -46 -1 -75 -15 -50 -24 -48 -24 -48 -7 0 8 9 22 20 32
28 26 25 34 -17 51 -21 8 -61 26 -90 41 -29 15 -54 25 -56 22 -2 -2 -41 -53
-88 -114 -89 -117 -185 -222 -194 -213 -4 3 12 34 34 68 22 34 50 87 61 119
12 31 39 84 60 117 22 34 80 140 130 235 50 96 97 183 105 193 28 37 28 6 0
-69 -15 -42 -24 -79 -20 -83 8 -8 88 77 123 133 41 64 92 114 92 91z m3559
-212 c26 -6 30 -10 25 -30 -7 -26 1 -29 101 -38 33 -3 85 -13 115 -21 30 -9
100 -25 155 -36 116 -22 115 -22 225 -60 207 -73 334 -132 475 -223 44 -28
106 -64 138 -80 40 -20 59 -36 63 -53 8 -29 -10 -119 -37 -183 -10 -25 -23
-63 -28 -85 -7 -27 -26 -56 -57 -85 -40 -39 -106 -126 -219 -285 -16 -23 -47
-62 -67 -87 l-37 -45 -93 -6 c-63 -4 -108 -12 -140 -27 -31 -13 -56 -18 -73
-14 -17 4 -32 1 -43 -10 -10 -8 -47 -20 -83 -26 -35 -5 -83 -15 -107 -22 -50
-14 -56 -9 -66 55 -6 39 -7 39 -26 22 -19 -17 -20 -17 -20 3 0 11 5 24 10 27
6 4 8 21 4 42 -5 25 -3 38 7 44 19 12 25 11 42 -5 19 -20 126 -88 161 -103 47
-21 64 -14 24 10 -128 77 -208 129 -213 138 -4 5 6 47 22 92 26 76 28 92 27
232 -1 125 -5 162 -23 220 -33 107 -113 261 -180 350 -34 44 -61 85 -61 91 0
6 -15 31 -33 55 -22 29 -36 60 -40 90 -8 61 -5 64 52 53z m1681 -114 c18 -12
2 -12 -25 0 -13 6 -15 9 -5 9 8 0 22 -4 30 -9z m2117 -7 c3 -10 23 -37 44 -60
l38 -41 -6 -74 c-6 -79 -27 -134 -72 -183 -15 -16 -50 -58 -77 -92 -69 -88
-76 -86 -45 13 10 32 26 95 35 139 9 44 23 109 31 145 8 36 18 89 21 118 7 52
19 67 31 35z m-2107 -153 c0 -5 -6 -10 -14 -10 -8 0 -18 5 -21 10 -3 6 3 10
14 10 12 0 21 -4 21 -10z m-4607 -27 c-7 -2 -19 -2 -25 0 -7 3 -2 5 12 5 14 0
19 -2 13 -5z m4647 -3 c0 -5 -4 -10 -10 -10 -5 0 -10 5 -10 10 0 6 5 10 10 10
6 0 10 -4 10 -10z m-2689 -51 c45 -15 77 -19 107 -15 42 6 43 5 59 -31 20 -48
11 -62 -55 -84 l-52 -18 -48 41 c-26 22 -50 47 -55 54 -4 7 -21 15 -37 19 -35
8 -39 32 -7 45 12 5 22 9 23 9 0 1 30 -8 65 -20z m193 -244 c10 -115 -3 -233
-33 -298 -42 -95 -238 -296 -288 -297 -31 0 -35 12 -44 114 -17 197 24 320
145 442 39 39 89 80 112 92 22 11 46 28 54 37 7 9 20 14 29 13 13 -3 18 -24
25 -103z m2774 -67 c24 -26 40 -78 24 -78 -13 0 -47 47 -56 78 -4 12 -3 22 2
22 4 0 18 -10 30 -22z m-1978 -22 c0 -2 4 -26 10 -54 5 -29 14 -102 21 -163 9
-92 8 -113 -3 -120 -10 -7 -9 -16 8 -46 30 -54 38 -107 19 -123 -16 -13 -20
-8 -27 35 -5 31 -87 33 -134 4 -58 -35 -63 -15 -26 93 18 51 40 100 50 108 10
9 16 25 14 39 -3 18 25 158 44 219 3 10 24 18 24 8z m-498 -100 c53 -14 114
-32 135 -40 21 -8 47 -17 57 -20 14 -5 16 -10 8 -18 -16 -16 -181 7 -252 35
-83 32 -135 86 -72 74 15 -2 71 -16 124 -31z m468 -401 c11 -13 8 -15 -19 -15
-30 0 -39 9 -24 23 11 11 30 8 43 -8z m70 -112 c0 -55 -12 -50 -17 7 -2 24 0
40 6 40 6 0 11 -21 11 -47z m135 -132 c5 -23 -1 -44 -27 -90 -18 -33 -39 -63
-47 -66 -24 -10 -6 74 23 104 15 15 26 39 26 54 0 36 17 34 25 -2z"/>
<path d="M7440 1786 c0 -8 -3 -23 -6 -33 -5 -12 -4 -15 3 -8 16 15 26 55 14
55 -6 0 -11 -6 -11 -14z"/>
<path d="M7412 1685 c0 -16 2 -22 5 -12 2 9 2 23 0 30 -3 6 -5 -1 -5 -18z"/>
<path d="M7423 1615 c0 -22 2 -30 4 -17 2 12 2 30 0 40 -3 9 -5 -1 -4 -23z"/>
<path d="M7406 1485 c-19 -29 -14 -45 15 -45 15 0 19 7 19 35 0 41 -11 45 -34
10z"/>
<path d="M4551 1355 c-1 -14 37 -61 43 -54 3 2 -6 18 -19 34 -13 17 -24 26
-24 20z"/>
<path d="M6580 9975 c0 -14 2 -25 4 -25 2 0 6 11 8 25 3 14 1 25 -3 25 -5 0
-9 -11 -9 -25z"/>
<path d="M6581 9860 c0 -19 4 -44 9 -55 7 -16 9 -13 9 15 0 19 -4 44 -9 55 -7
16 -9 13 -9 -15z"/>
<path d="M6611 9685 c0 -16 4 -37 9 -45 8 -12 10 -10 9 10 0 14 -4 34 -9 45
-7 17 -9 16 -9 -10z"/>
<path d="M6641 9470 c0 -14 4 -34 9 -45 8 -18 9 -18 9 5 0 14 -4 34 -9 45 -8
18 -9 18 -9 -5z"/>
<path d="M6670 9384 c0 -13 51 -86 56 -81 3 3 -7 22 -21 43 -31 46 -35 50 -35
38z"/>
<path d="M6703 9234 c-31 -53 -43 -91 -24 -80 13 9 64 113 60 124 -2 6 -19
-14 -36 -44z"/>
<path d="M6653 9055 c0 -33 2 -45 4 -27 2 18 2 45 0 60 -2 15 -4 0 -4 -33z"/>
<path d="M6670 8936 c0 -8 5 -18 10 -21 6 -3 10 1 10 9 0 8 -4 18 -10 21 -5 3
-10 -1 -10 -9z"/>
<path d="M6706 8865 c4 -8 10 -15 15 -15 4 0 6 7 3 15 -4 8 -10 15 -15 15 -4
0 -6 -7 -3 -15z"/>
<path d="M6742 8824 c10 -10 20 -15 24 -12 3 4 -5 12 -18 18 -22 12 -22 12 -6
-6z"/>
<path d="M6785 8790 c3 -5 11 -10 16 -10 6 0 7 5 4 10 -3 6 -11 10 -16 10 -6
0 -7 -4 -4 -10z"/>
<path d="M6880 8756 c0 -2 7 -7 16 -10 8 -3 12 -2 9 4 -6 10 -25 14 -25 6z"/>
<path d="M6930 8700 c0 -5 5 -10 11 -10 5 0 7 5 4 10 -3 6 -8 10 -11 10 -2 0
-4 -4 -4 -10z"/>
<path d="M9150 6196 c0 -8 5 -18 10 -21 6 -3 10 1 10 9 0 8 -4 18 -10 21 -5 3
-10 -1 -10 -9z"/>
<path d="M9187 6122 c3 -12 9 -25 14 -28 14 -8 11 10 -6 32 -13 18 -14 18 -8
-4z"/>
<path d="M9217 6050 c7 -25 23 -37 23 -17 0 8 -6 20 -14 26 -12 10 -13 8 -9
-9z"/>
<path d="M9247 5990 c7 -25 23 -37 23 -17 0 8 -6 20 -14 26 -12 10 -13 8 -9
-9z"/>
<path d="M9278 5925 c2 -14 8 -28 13 -31 15 -9 10 33 -5 45 -11 9 -12 6 -8
-14z"/>
<path d="M9310 5859 c0 -8 7 -24 16 -35 14 -18 15 -18 8 6 -8 31 -24 50 -24
29z"/>
<path d="M9340 5789 c0 -8 7 -24 15 -35 11 -15 14 -16 15 -3 0 8 -7 24 -15 35
-11 15 -14 16 -15 3z"/>
<path d="M9370 5709 c0 -8 7 -24 15 -35 11 -15 14 -16 15 -3 0 8 -7 24 -15 35
-11 15 -14 16 -15 3z"/>
<path d="M9410 5607 c10 -47 20 -59 20 -26 0 14 -6 34 -14 45 -13 17 -14 15
-6 -19z"/>
<path d="M9435 5499 c4 -14 -1 -65 -9 -113 -12 -72 -22 -96 -56 -144 -22 -32
-40 -63 -40 -70 0 -23 20 -12 36 21 9 17 28 47 41 65 47 63 69 207 38 248 -15
18 -15 18 -10 -7z"/>
<path d="M9317 5087 c-11 -29 -9 -53 4 -40 6 6 9 21 7 34 -3 21 -4 22 -11 6z"/>
<path d="M8880 1226 c-108 -37 -131 -48 -127 -60 6 -19 56 -18 120 3 72 24
107 46 107 67 0 19 -22 16 -100 -10z"/>
<path d="M8712 660 c13 -21 38 -27 38 -10 0 9 -31 30 -44 30 -4 0 -1 -9 6 -20z"/>
<path d="M6532 238 c-7 -7 -12 -20 -12 -30 0 -11 -7 -33 -16 -50 -11 -21 -13
-33 -5 -41 7 -7 12 -5 16 9 4 10 15 37 26 60 27 58 23 84 -9 52z"/>
<path d="M9142 215 c-6 -13 -29 -35 -50 -49 -34 -21 -40 -31 -50 -82 -18 -89
-23 -84 79 -84 l92 0 -7 37 c-4 21 -9 65 -12 98 -7 85 -13 105 -28 105 -7 0
-18 -11 -24 -25z"/>
<path d="M4295 120 c28 -12 65 -12 65 0 0 6 -19 10 -42 9 -33 0 -38 -2 -23 -9z"/>
</g>
</svg>
